<svg width="16" height="17" viewBox="0 0 16 17" fill="none" xmlns="http://www.w3.org/2000/svg">
<g id="Login-Icons">
<path id="Vector" d="M8 3.41675C4.36364 3.41675 1.25818 5.67857 0 8.87129C1.25818 12.064 4.36364 14.3258 8 14.3258C11.6364 14.3258 14.7418 12.064 16 8.87129C14.7418 5.67857 11.6364 3.41675 8 3.41675ZM8 12.5077C5.99273 12.5077 4.36364 10.8786 4.36364 8.87129C4.36364 6.86402 5.99273 5.23493 8 5.23493C10.0073 5.23493 11.6364 6.86402 11.6364 8.87129C11.6364 10.8786 10.0073 12.5077 8 12.5077ZM8 6.68948C6.79273 6.68948 5.81818 7.66402 5.81818 8.87129C5.81818 10.0786 6.79273 11.0531 8 11.0531C9.20727 11.0531 10.1818 10.0786 10.1818 8.87129C10.1818 7.66402 9.20727 6.68948 8 6.68948Z" fill="#4D4D4D"/>
</g>
</svg>
